<?xml version="1.0" encoding="utf-8"?>

<!DOCTYPE svg PUBLIC "-//W3C//DTD SVG 1.1//EN" "http://www.w3.org/Graphics/SVG/1.1/DTD/svg11.dtd">
<!-- Uploaded to: SVG Repo, www.svgrepo.com, Generator: SVG Repo Mixer Tools -->
<svg height="800px" width="800px" version="1.1" id="_x32_" xmlns="http://www.w3.org/2000/svg" xmlns:xlink="http://www.w3.org/1999/xlink" 
	 viewBox="0 0 512 512"  xml:space="preserve">
<style type="text/css">
	.st0{fill:#000000;}
</style>
<g>
	<path class="st0" d="M331.748,199.256l-11.189-11.189L501.365,7.261c-93.744,8.129-196.113,113.906-257.29,175.085l-18.395,67.113
		l-61.519,15.928c-3.827-13.034-10.907-25.388-21.139-35.606c-8.134-8.128-17.632-14.297-27.724-18.395
		c-15.18-6.138-31.662-7.672-47.503-4.604c-15.817,3.04-31.051,10.801-43.255,22.999c-8.143,8.149-14.326,17.638-18.409,27.739
		c-6.133,15.151-7.663,31.662-4.599,47.494c3.044,15.811,10.785,31.041,23.008,43.259c8.13,8.14,17.618,14.297,27.719,18.395
		c15.167,6.148,31.667,7.673,47.504,4.614c15.821-3.05,31.041-10.791,43.259-23.009c8.129-8.138,14.312-17.628,18.4-27.729
		c2.429-6.002,4.104-12.208,5.094-18.483l47.086-10.936l-10.921,47.125c-0.972,0.155-1.972,0.271-2.958,0.466
		c-15.812,3.039-31.056,10.781-43.249,22.999c-8.149,8.148-14.326,17.637-18.41,27.738c-6.133,15.152-7.673,31.662-4.599,47.494
		c3.04,15.812,10.786,31.041,23.009,43.259c8.124,8.139,17.618,14.297,27.714,18.395c15.161,6.138,31.672,7.673,47.494,4.604
		c15.836-3.039,31.054-10.78,43.272-22.999c8.13-8.138,14.317-17.618,18.405-27.719c6.134-15.161,7.659-31.681,4.604-47.512
		c-3.054-15.812-10.785-31.041-23.009-43.259c-8.133-8.13-17.632-14.297-27.728-18.395c-2.434-0.982-4.9-1.807-7.406-2.564
		l20.708-62.393l61.853-17.715C383.33,199.702,502.036,111.31,512,19.004L331.748,199.256z M122.068,296.505
		c-1.437,7.382-4.939,14.346-10.703,20.105c-3.851,3.846-8.221,6.662-12.898,8.586c-7.006,2.836-14.767,3.574-22.168,2.127
		c-7.38-1.447-14.32-4.954-20.109-10.703c-3.847-3.856-6.672-8.227-8.571-12.888c-2.842-7.022-3.574-14.782-2.132-22.183
		c1.442-7.382,4.953-14.326,10.712-20.105c3.852-3.856,8.207-6.662,12.884-8.566c7.011-2.856,14.792-3.574,22.168-2.146
		c7.395,1.447,14.335,4.953,20.118,10.712c3.836,3.866,6.658,8.217,8.561,12.898C122.787,281.344,123.515,289.105,122.068,296.505z
		 M243.297,393.377c3.842,3.865,6.663,8.216,8.562,12.897c2.86,7.003,3.583,14.763,2.146,22.164
		c-1.442,7.381-4.958,14.336-10.708,20.104c-3.856,3.847-8.216,6.672-12.897,8.586c-7.008,2.836-14.768,3.564-22.164,2.137
		c-7.386-1.457-14.332-4.964-20.12-10.713c-3.846-3.856-6.663-8.217-8.561-12.888c-2.846-7.022-3.58-14.782-2.137-22.182
		c1.442-7.382,4.939-14.336,10.708-20.105c3.856-3.856,8.197-6.664,12.883-8.567c7.018-2.855,14.787-3.593,22.178-2.136
		C230.579,384.111,237.519,387.618,243.297,393.377z M296.968,229.781c-5.856,5.867-15.35,5.847-21.202,0
		c-5.852-5.846-5.852-15.335,0.005-21.192c5.852-5.847,15.341-5.857,21.188,0C302.81,214.436,302.82,223.935,296.968,229.781z"/>
</g>
</svg>